<svg id="Layer_1" data-name="Layer 1" xmlns="http://www.w3.org/2000/svg" viewBox="0 0 101.84 31.13"><defs><style>.cls-1{fill:#3b97d2;}.cls-2{fill:#2c3e50;}.cls-3{fill:#bcc2c6;}</style></defs><title>recast</title><path class="cls-1" d="M35.37,19.64H33.7V18.31A3,3,0,0,1,31,19.71a3.65,3.65,0,0,1-3.71-4A3.61,3.61,0,0,1,31,11.83a3.06,3.06,0,0,1,2.75,1.41V8.85h1.67V19.64ZM33.7,15.8a2.36,2.36,0,0,0-2.37-2.54,2.38,2.38,0,0,0-2.38,2.54A2.38,2.38,0,1,0,33.7,15.8Z"/><path class="cls-1" d="M39.72,9.69a1,1,0,1,1-1-1A1,1,0,0,1,39.72,9.69Zm-1.8,9.94V11.9h1.66v7.73H37.92Z"/><path class="cls-1" d="M46.68,18.69a3.14,3.14,0,0,1-2.56,1,2.45,2.45,0,0,1-2.72-2.4c0-1.41,1.06-2.31,2.92-2.33h2.34V14.75c0-1-.63-1.56-1.85-1.56a4.08,4.08,0,0,0-2.28.79l-0.68-1.16a5.66,5.66,0,0,1,3.33-1c2,0,3.11,1,3.13,2.72v5.07H46.68V18.69Zm0-1.77V16.21H44.58c-1.09,0-1.6.29-1.6,1a1.26,1.26,0,0,0,1.5,1.15A2,2,0,0,0,46.67,16.92Z"/><path class="cls-1" d="M58,14.82v4.81H56.29V15.29a1.72,1.72,0,0,0-1.86-1.88,2.17,2.17,0,0,0-2.19,2.11v4.11H50.57V11.9h1.67v1.48a2.92,2.92,0,0,1,2.85-1.54A2.7,2.7,0,0,1,58,14.82Z"/><path class="cls-1" d="M64.84,18.69a3.14,3.14,0,0,1-2.56,1,2.45,2.45,0,0,1-2.72-2.4c0-1.41,1.06-2.31,2.92-2.33h2.34V14.75c0-1-.63-1.56-1.85-1.56A4.08,4.08,0,0,0,60.7,14L60,12.82a5.66,5.66,0,0,1,3.33-1c2,0,3.11,1,3.13,2.72v5.07H64.84V18.69Zm0-1.77V16.21H62.74c-1.09,0-1.6.29-1.6,1a1.26,1.26,0,0,0,1.5,1.15A2,2,0,0,0,64.83,16.92Z"/><path class="cls-2" d="M76.8,14.82v4.81H75.13V15.29a1.72,1.72,0,0,0-1.86-1.88,2.21,2.21,0,0,0-2.21,2.41v3.81H69.39V8.85h1.67v4.56a2.93,2.93,0,0,1,2.86-1.57A2.7,2.7,0,0,1,76.8,14.82Z"/><path class="cls-2" d="M85.85,16.41H80a2.35,2.35,0,0,0,2.4,1.93,3,3,0,0,0,2.18-.9l0.89,0.94a4.21,4.21,0,0,1-3.2,1.31,3.72,3.72,0,0,1-4-3.91,3.75,3.75,0,0,1,3.91-3.94C84.94,11.84,86,13.62,85.85,16.41Zm-1.45-1.22a2,2,0,0,0-2.15-2,2.2,2.2,0,0,0-2.27,2h4.42Z"/><path class="cls-2" d="M95.73,15.8a3.58,3.58,0,0,1-3.66,3.9,3,3,0,0,1-2.73-1.4v4.16H87.66V11.9h1.67v1.34a3,3,0,0,1,2.7-1.4A3.64,3.64,0,0,1,95.73,15.8ZM94,15.74a2.36,2.36,0,1,0-4.71,0A2.36,2.36,0,1,0,94,15.74Z"/><path class="cls-3" d="M14.53,15.35C12.77,14.64,9,14.43,6.7,14.43v0.52a25.47,25.47,0,0,1,7.6.86A1,1,0,0,1,14.53,15.35Z"/><path class="cls-3" d="M15.77,15.17A5.83,5.83,0,0,1,21,9.72l-0.05-.51A6.35,6.35,0,0,0,15.26,15,1,1,0,0,1,15.77,15.17Z"/><path class="cls-3" d="M16.22,16.11a1,1,0,0,1-.19.47c1.79,0.68,5.51.89,7.75,0.89V17A25.85,25.85,0,0,1,16.22,16.11Z"/><path class="cls-3" d="M14.7,16.78A5.83,5.83,0,0,1,9.5,22.18l0.05,0.52A6.35,6.35,0,0,0,15.21,17,1,1,0,0,1,14.7,16.78Z"/><path class="cls-2" d="M15.21,6.46a0.43,0.43,0,0,0,0,.86,8.26,8.26,0,0,1,8.05,6.5,6.55,6.55,0,0,0-7.73,1.24,1,1,0,0,1,.44.28,6,6,0,0,1,7.4-.87,8,8,0,0,1-1.47,5.87,5.69,5.69,0,0,1-6-3.67,1,1,0,0,1-.43.24,6.18,6.18,0,0,0,6,3.95,8.23,8.23,0,0,1-14.12-2.7,6.55,6.55,0,0,0,7.5-1.28,1,1,0,0,1-.41-0.32,6,6,0,0,1-7.28.92,8.13,8.13,0,0,1,1-6.21,6,6,0,0,1,6.38,4A1,1,0,0,1,15,15a6.55,6.55,0,0,0-6.47-4.32,8.25,8.25,0,0,1,2.6-2.34l0,0L11.4,8.79a0.22,0.22,0,0,0,.18.12h0a0.22,0.22,0,0,0,.18-0.09l1.08-1.58a0.21,0.21,0,0,0-.16-0.34l-1.91-.14a0.22,0.22,0,0,0-.19.09,0.22,0.22,0,0,0,0,.21l0.26,0.54-0.11,0A9.11,9.11,0,1,0,15.21,6.46Z"/><path class="cls-1" d="M15.26,17.39a1.4,1.4,0,1,1,1.4-1.4A1.4,1.4,0,0,1,15.26,17.39Zm0-2.19A0.79,0.79,0,1,0,16,16,0.79,0.79,0,0,0,15.26,15.2Z"/></svg>