<svg id="Layer_1" data-name="Layer 1" xmlns="http://www.w3.org/2000/svg" xmlns:xlink="http://www.w3.org/1999/xlink" viewBox="0 0 122.67 103.33"><defs><style>.cls-1,.cls-10,.cls-11,.cls-12,.cls-7,.cls-8,.cls-9{fill:none;}.cls-2{fill:#35495e;}.cls-16,.cls-3{fill:#fff;}.cls-4{fill:#2c3e50;}.cls-5{clip-path:url(#clip-path);}.cls-6{opacity:0.4;}.cls-7,.cls-9{stroke:#ecf0f1;}.cls-7{stroke-miterlimit:10;stroke-width:0.59px;}.cls-10,.cls-11,.cls-12,.cls-13,.cls-8{stroke:#bdc3c7;}.cls-10,.cls-11,.cls-12,.cls-13,.cls-8,.cls-9{stroke-linecap:round;stroke-linejoin:round;}.cls-10,.cls-11,.cls-8,.cls-9{stroke-width:0.62px;}.cls-10{stroke-dasharray:0.42 1.18;}.cls-11{stroke-dasharray:0.41 1.16;}.cls-12{stroke-width:0.66px;}.cls-13,.cls-14{fill:#bdc3c7;}.cls-13{stroke-width:0.33px;}.cls-15{fill:#3b97d3;}.cls-16{opacity:0.05;}</style><clipPath id="clip-path"><rect class="cls-1" x="25.5" y="25.06" width="71.65" height="38.13"/></clipPath></defs><title>recast</title><rect class="cls-2" x="22.01" y="21.76" width="78.65" height="49.01" rx="3.87" ry="3.87"/><rect class="cls-3" x="25.5" y="25.06" width="71.65" height="38.13"/><path class="cls-2" d="M22,63.19v5.46a3.87,3.87,0,0,0,3.87,3.87h70.9a3.87,3.87,0,0,0,3.87-3.87V63.19H22Z"/><rect class="cls-2" x="53.29" y="70.14" width="16.08" height="11.43"/><rect class="cls-4" x="53.29" y="73.11" width="16.08" height="1.83"/><g class="cls-5"><g class="cls-6"><circle class="cls-7" cx="90.63" cy="54.57" r="10.88"/><path class="cls-8" d="M101.34,40.3a32.64,32.64,0,0,0-4.69,2.93"/><path class="cls-8" d="M94.72,56.45C99.85,51.14,103.63,46,105,42.81"/><path class="cls-8" d="M79.18,60.61c-3.24,4.37-4.78,7.8-3.72,8.86,1.35,1.35,6.54-1.53,12.65-6.75"/><path class="cls-8" d="M97.37,59.46c8.3-.59,14.27-2.25,14.27-4.21,0-1.46-3.33-2.75-8.48-3.56"/><path class="cls-9" d="M78.54,51.62c-5.39.8-8.91,2.13-8.91,3.63,0,2.09,6.82,3.84,16,4.31"/><path class="cls-8" d="M94.37,63.27l0.16,0.13"/><path class="cls-10" d="M95.46,64.14c4.92,3.83,8.87,5.76,10,4.61,1-1-.26-4-3-7.86"/><path class="cls-8" d="M102.14,60.41L102,60.23"/><path class="cls-8" d="M85.39,43.34l-0.17-.13"/><path class="cls-11" d="M84.29,42.51C80.08,39.45,76.81,38,75.78,39c-1.69,1.69,3.27,9.42,11.16,17.43"/><path class="cls-8" d="M87.34,56.88L87.49,57"/><path class="cls-12" d="M93.5,61.67a3.12,3.12,0,1,1,.82-2.11"/><polygon class="cls-13" points="94.32 61.04 93.37 59.4 95.26 59.4 94.32 61.04"/><rect class="cls-14" x="102.23" y="38.46" width="1.09" height="2.73" rx="0.55" ry="0.55"/><rect class="cls-14" x="103.87" y="39.83" width="1.09" height="1.37" rx="0.55" ry="0.55"/><rect class="cls-14" x="105.46" y="36.91" width="1.09" height="4.29" rx="0.55" ry="0.55"/></g></g><rect class="cls-15" x="41.54" y="34.25" width="40.24" height="21.93" rx="1" ry="1"/><rect class="cls-2" x="41.54" y="33.74" width="40.24" height="21.93" rx="1" ry="1"/><path class="cls-15" d="M70.3,41.09A4.75,4.75,0,1,0,75,45.84,4.75,4.75,0,0,0,70.3,41.09ZM73,46.68H71.14v1.84H69.45V46.68H67.61V45h1.84V43.15h1.69V45H73v1.68Z"/><polygon class="cls-16" points="25.5 25.06 25.5 55.66 89.19 25.06 25.5 25.06"/><path class="cls-3" d="M58.46,45.68H58.13a0.17,0.17,0,0,0-.12.06,0.4,0.4,0,0,1-.3.08,0.34,0.34,0,0,1,0-.31,0.51,0.51,0,0,0-.13-0.65,0.54,0.54,0,0,0-.64.12,0.35,0.35,0,0,1-.31.14,0.27,0.27,0,0,1-.05-0.27,0.57,0.57,0,0,0-.12-0.73,0.56,0.56,0,0,0-.65.15,0.38,0.38,0,0,1-.29.17,0.36,0.36,0,0,1,0-.31,0.57,0.57,0,0,0-.15-0.72,0.53,0.53,0,0,0-.6.12,0.4,0.4,0,0,1-.36.17,0.35,0.35,0,0,1,0-.35,0.54,0.54,0,0,0-.08-0.59l3.19-1.84a0.17,0.17,0,0,0,.06-0.23,0.17,0.17,0,0,0-.23-0.06l-3.71,2.14h-2l-0.53-.25a0.1,0.1,0,0,0-.14.09v0.17H48.84a0.17,0.17,0,0,0,0,.34h2.08v0.17a0.1,0.1,0,0,0,0,.09l0.05,0h0l0.55-.26H53.7L53.9,43a0.22,0.22,0,0,1,.16,0,0.31,0.31,0,0,1,0,.28,0.57,0.57,0,0,0,.14.7,0.62,0.62,0,0,0,.73-0.21,0.25,0.25,0,0,1,.24-0.08,0.39,0.39,0,0,1,0,.38,0.58,0.58,0,0,0,.17.65,0.54,0.54,0,0,0,.65-0.2,0.31,0.31,0,0,1,.29-0.11,0.39,0.39,0,0,1,0,.38,0.56,0.56,0,0,0,.18.62,0.54,0.54,0,0,0,.68-0.17,0.27,0.27,0,0,1,.27-0.09,0.3,0.3,0,0,1,0,.31,0.76,0.76,0,0,0,0,.47,0.44,0.44,0,0,0-.45,0,0.63,0.63,0,0,0-.1.75,0.25,0.25,0,0,1,0,.25,0.39,0.39,0,0,1-.35-0.14,0.58,0.58,0,0,0-.66-0.1,0.54,0.54,0,0,0-.07.68,0.31,0.31,0,0,1,0,.31,0.39,0.39,0,0,1-.35-0.16,0.56,0.56,0,0,0-.64-0.08,0.54,0.54,0,0,0-.11.69,0.26,0.26,0,0,1,0,.28,0.29,0.29,0,0,1-.28-0.11,0.59,0.59,0,0,0-.64-0.15,0.5,0.5,0,0,0-.2.48H51.61l-0.55-.26a0.1,0.1,0,0,0-.1,0,0.1,0.1,0,0,0,0,.09v0.17H48.84a0.17,0.17,0,0,0,0,.34h2.09v0.17a0.1,0.1,0,0,0,0,.08l0.05,0h0l0.53-.25h2l3.7,2.14,0.08,0a0.17,0.17,0,0,0,.08-0.31L53.8,48.66a0.38,0.38,0,0,1,0-.29,0.34,0.34,0,0,1,.29.12,0.51,0.51,0,0,0,.65.13A0.55,0.55,0,0,0,54.93,48a0.34,0.34,0,0,1,0-.34,0.27,0.27,0,0,1,.27.06,0.57,0.57,0,0,0,.72.18A0.56,0.56,0,0,0,56,47.23a0.38,0.38,0,0,1,0-.33,0.35,0.35,0,0,1,.3.1,0.57,0.57,0,0,0,.72.14,0.53,0.53,0,0,0,.13-0.6,0.4,0.4,0,0,1,0-.4,0.35,0.35,0,0,1,.33.13,0.53,0.53,0,0,0,.58.16A0.48,0.48,0,0,0,58.27,46h0.19A0.17,0.17,0,0,0,58.46,45.68Zm-0.51.42a0.13,0.13,0,0,1,0,.05,0.17,0.17,0,0,1-.12,0Z"/><path class="cls-3" d="M59.56,45.68H59A0.17,0.17,0,1,0,59,46h0.55A0.17,0.17,0,0,0,59.56,45.68Z"/><path class="cls-3" d="M61.75,45.68H61.2a0.17,0.17,0,0,0,0,.34h0.55A0.17,0.17,0,0,0,61.75,45.68Z"/><path class="cls-3" d="M60.65,45.68H60.1a0.17,0.17,0,0,0,0,.34h0.55A0.17,0.17,0,0,0,60.65,45.68Z"/><path class="cls-3" d="M63.29,45.75l-0.7-.33a0.1,0.1,0,0,0-.1,0,0.1,0.1,0,0,0,0,.08v0.17H62.3a0.17,0.17,0,0,0,0,.34h0.14v0.16a0.1,0.1,0,0,0,0,.09l0.05,0h0l0.71-.33a0.1,0.1,0,0,0,.06-0.09A0.1,0.1,0,0,0,63.29,45.75Z"/></svg>