<svg id="Layer_1" data-name="Layer 1" xmlns="http://www.w3.org/2000/svg" xmlns:xlink="http://www.w3.org/1999/xlink" viewBox="0 0 122.67 103.33"><defs><style>.cls-1,.cls-10,.cls-11,.cls-12,.cls-19,.cls-7,.cls-8,.cls-9{fill:none;}.cls-2{fill:#35495e;}.cls-16,.cls-3{fill:#fff;}.cls-4{opacity:0.4;}.cls-5{clip-path:url(#clip-path);}.cls-6{opacity:0.6;}.cls-7,.cls-9{stroke:#ecf0f1;}.cls-19,.cls-7{stroke-miterlimit:10;}.cls-7{stroke-width:0.59px;}.cls-10,.cls-11,.cls-12,.cls-13,.cls-8{stroke:#bdc3c7;}.cls-10,.cls-11,.cls-12,.cls-13,.cls-8,.cls-9{stroke-linecap:round;stroke-linejoin:round;}.cls-10,.cls-11,.cls-8,.cls-9{stroke-width:0.62px;}.cls-10{stroke-dasharray:0.42 1.18;}.cls-11{stroke-dasharray:0.41 1.16;}.cls-12{stroke-width:0.66px;}.cls-13,.cls-14{fill:#bdc3c7;}.cls-13{stroke-width:0.33px;}.cls-15{fill:#2c3e50;}.cls-16{opacity:0.05;}.cls-17{fill:#26b99a;}.cls-18{fill:#3b97d3;}.cls-19{stroke:#fff;stroke-width:0.4px;}</style><clipPath id="clip-path"><rect class="cls-1" x="25.43" y="25.06" width="71.65" height="38.13"/></clipPath></defs><title>recast</title><rect class="cls-2" x="22.01" y="21.76" width="78.65" height="49.01" rx="3.87" ry="3.87"/><rect class="cls-3" x="25.5" y="25.06" width="71.65" height="38.13"/><g class="cls-4"><g class="cls-5"><g class="cls-6"><circle class="cls-7" cx="90.56" cy="54.57" r="10.88"/><path class="cls-8" d="M101.27,40.3a32.64,32.64,0,0,0-4.69,2.93"/><path class="cls-8" d="M94.65,56.45c5.12-5.31,8.9-10.42,10.24-13.64"/><path class="cls-8" d="M79.11,60.61c-3.24,4.37-4.78,7.8-3.72,8.86,1.35,1.35,6.54-1.53,12.65-6.75"/><path class="cls-8" d="M97.3,59.46c8.3-.59,14.27-2.25,14.27-4.21,0-1.46-3.33-2.75-8.48-3.56"/><path class="cls-9" d="M78.47,51.62c-5.39.8-8.91,2.13-8.91,3.63,0,2.09,6.82,3.84,16,4.31"/><path class="cls-8" d="M94.3,63.27l0.16,0.13"/><path class="cls-10" d="M95.39,64.14c4.92,3.83,8.87,5.76,10,4.61,1-1-.26-4-3-7.86"/><path class="cls-8" d="M102.07,60.41l-0.12-.17"/><path class="cls-8" d="M85.32,43.34l-0.17-.13"/><path class="cls-11" d="M84.22,42.51C80,39.45,76.74,38,75.71,39,74,40.74,79,48.47,86.86,56.47"/><path class="cls-8" d="M87.27,56.88L87.42,57"/><path class="cls-12" d="M93.43,61.67a3.12,3.12,0,1,1,.82-2.11"/><polygon class="cls-13" points="94.25 61.04 93.3 59.4 95.19 59.4 94.25 61.04"/><rect class="cls-14" x="102.16" y="38.46" width="1.09" height="2.73" rx="0.55" ry="0.55"/><rect class="cls-14" x="103.8" y="39.83" width="1.09" height="1.37" rx="0.55" ry="0.55"/><rect class="cls-14" x="105.39" y="36.91" width="1.09" height="4.29" rx="0.55" ry="0.55"/></g></g></g><path class="cls-2" d="M22,63.19v5.46a3.87,3.87,0,0,0,3.87,3.87h70.9a3.87,3.87,0,0,0,3.87-3.87V63.19H22Z"/><rect class="cls-2" x="53.25" y="70.14" width="16.08" height="11.43"/><rect class="cls-15" x="53.25" y="73.11" width="16.08" height="1.83"/><rect class="cls-2" x="33.22" y="33.68" width="56.75" height="9.36" rx="1" ry="1"/><polygon class="cls-16" points="25.5 25.06 25.5 55.66 89.19 25.06 25.5 25.06"/><rect class="cls-3" x="36.53" y="37.69" width="1.24" height="3.11" rx="0.62" ry="0.62"/><rect class="cls-3" x="38.4" y="39.24" width="1.24" height="1.55" rx="0.62" ry="0.62"/><rect class="cls-3" x="40.2" y="35.93" width="1.24" height="4.87" rx="0.62" ry="0.62"/><circle class="cls-17" cx="85.55" cy="38.36" r="2.31"/><rect class="cls-3" x="84.78" y="38.02" width="0.36" height="1.34" rx="0.18" ry="0.18" transform="translate(-2.47 71.41) rotate(-45)"/><rect class="cls-3" x="85.8" y="37.23" width="0.36" height="2.27" rx="0.18" ry="0.18" transform="translate(52.31 -49.56) rotate(45)"/><rect class="cls-18" x="44.37" y="36.47" width="23.5" height="1.49"/><rect class="cls-3" x="44.37" y="39.55" width="14.73" height="0.75"/><rect class="cls-14" x="32.96" y="44.93" width="56.75" height="9.36" rx="1" ry="1"/><rect class="cls-3" x="39.94" y="48.94" width="1.24" height="3.11" rx="0.62" ry="0.62" transform="translate(81.12 100.99) rotate(-180)"/><rect class="cls-3" x="38.08" y="50.5" width="1.24" height="1.55" rx="0.62" ry="0.62" transform="translate(77.39 102.55) rotate(180)"/><rect class="cls-3" x="36.27" y="47.18" width="1.24" height="4.87" rx="0.62" ry="0.62" transform="translate(73.79 99.23) rotate(180)"/><rect class="cls-18" x="44.11" y="47.72" width="13.24" height="1.49"/><rect class="cls-3" x="44.11" y="50.8" width="21.93" height="0.75"/><circle class="cls-19" cx="85.55" cy="49.62" r="2.31"/></svg>