<svg id="Layer_1" data-name="Layer 1" xmlns="http://www.w3.org/2000/svg" viewBox="0 0 122.67 103.33"><defs><style>.cls-1,.cls-2,.cls-3,.cls-4,.cls-5,.cls-6{fill:none;}.cls-1,.cls-3{stroke:#35495e;}.cls-1{stroke-miterlimit:10;stroke-width:1.62px;}.cls-2,.cls-4,.cls-5,.cls-6,.cls-7{stroke:#3b97d3;}.cls-2,.cls-3,.cls-4,.cls-5,.cls-6,.cls-7{stroke-linecap:round;stroke-linejoin:round;}.cls-2,.cls-3,.cls-4,.cls-5{stroke-width:1.69px;}.cls-4{stroke-dasharray:1.15 3.23;}.cls-5{stroke-dasharray:1.14 3.18;}.cls-6{stroke-width:1.8px;}.cls-7,.cls-8{fill:#3b97d3;}.cls-7{stroke-width:0.9px;}</style></defs><title>recast</title><circle class="cls-1" cx="61.33" cy="55" r="29.76"/><path class="cls-2" d="M90.62,16a89.27,89.27,0,0,0-12.84,8"/><path class="cls-2" d="M72.52,60.14c14-14.53,24.35-28.5,28-37.3"/><path class="cls-2" d="M29.34,94.69c6.45-3,15.33-9.11,25.07-17.43"/><path class="cls-2" d="M30,71.51A85.18,85.18,0,0,0,20.65,86.7"/><path class="cls-3" d="M79.76,68.38c22.69-1.62,39-6.16,39-11.51,0-4-9.11-7.53-23.18-9.75"/><path class="cls-3" d="M28.26,46.94c-14.75,2.2-24.38,5.83-24.38,9.93,0,5.71,18.64,10.5,43.76,11.8"/><path class="cls-2" d="M71.56,78.8L72,79.16"/><path class="cls-4" d="M74.55,81.17C88,91.65,98.8,96.93,102,93.78c2.68-2.68-.72-10.85-8.22-21.5"/><path class="cls-2" d="M92.8,71l-0.34-.47"/><path class="cls-2" d="M47,24.28l-0.46-.35"/><path class="cls-5" d="M44,22c-11.51-8.38-20.46-12.32-23.28-9.5-4.63,4.63,9,25.78,30.51,47.67"/><path class="cls-2" d="M52.34,61.33l0.41,0.41"/><path class="cls-6" d="M69.17,74.43a8.53,8.53,0,1,1,2.24-5.76"/><polygon class="cls-7" points="71.41 72.7 68.82 68.22 74 68.22 71.41 72.7"/><rect class="cls-8" x="13.9" y="90.94" width="2.99" height="7.48" rx="1" ry="1"/><rect class="cls-8" x="18.38" y="94.68" width="2.99" height="3.74" rx="1" ry="1"/><rect class="cls-8" x="22.72" y="86.7" width="2.99" height="11.73" rx="1" ry="1"/><path class="cls-8" d="M102.84,14.33h-0.33a0.17,0.17,0,0,0-.12.06,0.4,0.4,0,0,1-.3.08,0.34,0.34,0,0,1,0-.31A0.51,0.51,0,0,0,102,13.5a0.54,0.54,0,0,0-.64.12,0.35,0.35,0,0,1-.31.14A0.27,0.27,0,0,1,101,13.5a0.57,0.57,0,0,0-.12-0.73,0.56,0.56,0,0,0-.65.15,0.38,0.38,0,0,1-.29.17,0.36,0.36,0,0,1,0-.31A0.57,0.57,0,0,0,99.71,12a0.53,0.53,0,0,0-.6.12,0.4,0.4,0,0,1-.36.17,0.35,0.35,0,0,1,0-.35,0.54,0.54,0,0,0-.08-0.59l3.19-1.84a0.17,0.17,0,0,0,.06-0.23,0.17,0.17,0,0,0-.23-0.06L98,11.4H96l-0.53-.25a0.1,0.1,0,0,0-.14.09V11.4H93.23a0.17,0.17,0,0,0,0,.34h2.08V11.9a0.1,0.1,0,0,0,0,.09l0.05,0h0L96,11.74h2.09l0.2-.12a0.22,0.22,0,0,1,.16,0,0.31,0.31,0,0,1,0,.28,0.57,0.57,0,0,0,.14.7,0.62,0.62,0,0,0,.73-0.21,0.25,0.25,0,0,1,.24-0.08,0.39,0.39,0,0,1,0,.38,0.58,0.58,0,0,0,.17.65,0.54,0.54,0,0,0,.65-0.2,0.31,0.31,0,0,1,.29-0.11,0.39,0.39,0,0,1,0,.38,0.56,0.56,0,0,0,.18.62,0.54,0.54,0,0,0,.68-0.17,0.27,0.27,0,0,1,.27-0.09,0.3,0.3,0,0,1,0,.31,0.76,0.76,0,0,0,0,.47,0.44,0.44,0,0,0-.45,0,0.63,0.63,0,0,0-.1.75,0.25,0.25,0,0,1,0,.25,0.39,0.39,0,0,1-.35-0.14,0.58,0.58,0,0,0-.66-0.1,0.54,0.54,0,0,0-.07.68,0.31,0.31,0,0,1,0,.31,0.39,0.39,0,0,1-.35-0.16,0.56,0.56,0,0,0-.64-0.08,0.54,0.54,0,0,0-.11.69A0.26,0.26,0,0,1,99,17a0.29,0.29,0,0,1-.28-0.11,0.59,0.59,0,0,0-.64-0.15,0.5,0.5,0,0,0-.2.48H96L95.45,17a0.1,0.1,0,0,0-.1,0,0.1,0.1,0,0,0,0,.09v0.17H93.23a0.17,0.17,0,0,0,0,.34h2.09v0.17a0.1,0.1,0,0,0,0,.08l0.05,0h0L96,17.58h2l3.7,2.14,0.08,0a0.17,0.17,0,0,0,.08-0.31l-3.66-2.11a0.38,0.38,0,0,1,0-.29,0.34,0.34,0,0,1,.29.12,0.51,0.51,0,0,0,.65.13,0.55,0.55,0,0,0,.14-0.63,0.34,0.34,0,0,1,0-.34,0.27,0.27,0,0,1,.27.06,0.57,0.57,0,0,0,.72.18,0.56,0.56,0,0,0,.12-0.66,0.38,0.38,0,0,1,0-.33,0.35,0.35,0,0,1,.3.1,0.57,0.57,0,0,0,.72.14,0.53,0.53,0,0,0,.13-0.6,0.4,0.4,0,0,1,0-.4,0.35,0.35,0,0,1,.33.13,0.53,0.53,0,0,0,.58.16,0.48,0.48,0,0,0,.24-0.41h0.19A0.17,0.17,0,0,0,102.84,14.33Zm-0.51.42a0.13,0.13,0,0,1,0,.05,0.17,0.17,0,0,1-.12,0Z"/><path class="cls-8" d="M103.94,14.33h-0.55a0.17,0.17,0,1,0,0,.34h0.55A0.17,0.17,0,0,0,103.94,14.33Z"/><path class="cls-8" d="M106.14,14.33h-0.55a0.17,0.17,0,0,0,0,.34h0.55A0.17,0.17,0,0,0,106.14,14.33Z"/><path class="cls-8" d="M105,14.33h-0.55a0.17,0.17,0,0,0,0,.34H105A0.17,0.17,0,0,0,105,14.33Z"/><path class="cls-8" d="M107.68,14.41l-0.7-.33a0.1,0.1,0,0,0-.1,0,0.1,0.1,0,0,0,0,.08v0.17h-0.15a0.17,0.17,0,0,0,0,.34h0.14v0.16a0.1,0.1,0,0,0,0,.09l0.05,0h0l0.71-.33a0.1,0.1,0,0,0,.06-0.09A0.1,0.1,0,0,0,107.68,14.41Z"/></svg>