<svg id="Layer_1" data-name="Layer 1" xmlns="http://www.w3.org/2000/svg" viewBox="0 0 122.67 103.33"><defs><style>.cls-1,.cls-2,.cls-3,.cls-4{fill:none;}.cls-1,.cls-11,.cls-12,.cls-13,.cls-14,.cls-15,.cls-16,.cls-5,.cls-7,.cls-8,.cls-9{stroke:#2c3e50;}.cls-1,.cls-11,.cls-14,.cls-7{stroke-miterlimit:10;}.cls-1{stroke-width:1.28px;}.cls-10,.cls-2,.cls-3,.cls-4,.cls-6{stroke:#3b97d3;}.cls-10,.cls-12,.cls-13,.cls-15,.cls-16,.cls-2,.cls-3,.cls-4,.cls-5,.cls-6,.cls-8,.cls-9{stroke-linecap:round;stroke-linejoin:round;}.cls-10,.cls-2,.cls-3,.cls-4,.cls-5,.cls-6{stroke-width:1.33px;}.cls-3{stroke-dasharray:0.91 2.55;}.cls-4{stroke-dasharray:0.9 2.51;}.cls-13,.cls-5{fill:#2c3e50;}.cls-10,.cls-11,.cls-12,.cls-14,.cls-15,.cls-17,.cls-6,.cls-7,.cls-8{fill:#fff;}.cls-7,.cls-8,.cls-9{stroke-width:0.43px;}.cls-9{fill:#35495e;}.cls-10{stroke-dasharray:0.91 2.56;}.cls-11,.cls-12{stroke-width:0.39px;}.cls-13{stroke-width:0.42px;}.cls-14,.cls-15,.cls-16{stroke-width:0.41px;}.cls-16{fill:#3b97d2;}</style></defs><title>recast-subscribe</title><circle class="cls-1" cx="65.72" cy="50.22" r="23.51"/><path class="cls-2" d="M88.86,19.39a70.52,70.52,0,0,0-10.14,6.33"/><path class="cls-2" d="M74.56,54.28C85.63,42.81,93.8,31.77,96.68,24.82"/><path class="cls-2" d="M41,63.26c-7,9.45-10.34,16.84-8,19.13,2.92,2.92,14.13-3.31,27.32-14.59"/><path class="cls-2" d="M80.28,60.79c17.92-1.28,30.82-4.87,30.82-9.09,0-3.15-7.2-6-18.31-7.7"/><path class="cls-2" d="M39.6,43.86C28,45.59,20.34,48.46,20.34,51.7c0,4.51,14.73,8.29,34.57,9.32"/><path class="cls-2" d="M73.8,69l0.36,0.29"/><path class="cls-3" d="M76.16,70.9c10.64,8.28,19.16,12.45,21.65,10,2.11-2.11-.57-8.57-6.49-17"/><path class="cls-2" d="M90.58,62.83l-0.27-.37"/><path class="cls-2" d="M54.4,26L54,25.68"/><path class="cls-4" d="M52,24.18c-9.09-6.62-16.16-9.73-18.39-7.5C30,20.34,40.71,37,57.73,54.33"/><path class="cls-2" d="M58.61,55.22l0.32,0.32"/><circle class="cls-5" cx="66.96" cy="60.79" r="8.78"/><circle class="cls-6" cx="95.06" cy="21.77" r="8.78"/><circle class="cls-7" cx="99.06" cy="22.22" r="0.78"/><circle class="cls-7" cx="91.06" cy="22.22" r="0.78"/><path class="cls-8" d="M91.93,19.17H98.4a0.65,0.65,0,0,1,.65.65v3.42a3.89,3.89,0,0,1-3.89,3.89h0a3.89,3.89,0,0,1-3.89-3.89V19.82a0.65,0.65,0,0,1,.65-0.65Z"/><path class="cls-9" d="M90.87,22h0a0.41,0.41,0,0,1-.41-0.41v-3a0.41,0.41,0,0,1,.41-0.41h0.86a1.87,1.87,0,0,0,1.11-.37s2.08-.83,7.7.12c0.33,0.05,0,.06,0,0.28v0.88a0.41,0.41,0,0,1-.41.41H91.83a0.41,0.41,0,0,0-.41.37l-0.15,1.78A0.41,0.41,0,0,1,90.87,22Z"/><circle class="cls-6" cx="20.34" cy="52.4" r="8.78"/><circle class="cls-10" cx="98.28" cy="81.57" r="8.78"/><circle class="cls-11" cx="23.99" cy="53.4" r="0.71"/><circle class="cls-11" cx="16.69" cy="53.4" r="0.71"/><path class="cls-12" d="M17.48,50.61h5.91a0.6,0.6,0,0,1,.6.6v3.12a3.55,3.55,0,0,1-3.55,3.55h0a3.55,3.55,0,0,1-3.55-3.55V51.21A0.6,0.6,0,0,1,17.48,50.61Z"/><circle class="cls-13" cx="20.21" cy="48" r="1.01"/><path class="cls-13" d="M16.89,51.55a3.55,3.55,0,1,1,7.1,0H22.43L22,51l-0.44.58H16.89Z"/><circle class="cls-14" cx="101.72" cy="82.93" r="0.75"/><circle class="cls-14" cx="94.09" cy="82.93" r="0.75"/><path class="cls-15" d="M94.92,80h6.17a0.62,0.62,0,0,1,.62.62V83.9A3.71,3.71,0,0,1,98,87.61h0A3.71,3.71,0,0,1,94.3,83.9V80.64A0.62,0.62,0,0,1,94.92,80Z"/><path class="cls-16" d="M93.92,82.73h0a0.39,0.39,0,0,1-.39-0.39V79.46a0.39,0.39,0,0,1,.39-0.39h0.82a1.78,1.78,0,0,0,1.06-.35s1.6-2.31,7-1.41a0.36,0.36,0,0,1,.39.39v2.24a0.39,0.39,0,0,1-.39.39H94.83a0.39,0.39,0,0,0-.39.36L94.3,82.37A0.39,0.39,0,0,1,93.92,82.73Z"/><path class="cls-17" d="M70.31,61H70a0.17,0.17,0,0,0-.12.06,0.4,0.4,0,0,1-.3.08,0.34,0.34,0,0,1,0-.31,0.51,0.51,0,0,0-.13-0.65,0.54,0.54,0,0,0-.64.12,0.35,0.35,0,0,1-.31.14,0.27,0.27,0,0,1-.05-0.27,0.57,0.57,0,0,0-.12-0.73,0.56,0.56,0,0,0-.65.15,0.38,0.38,0,0,1-.29.17,0.36,0.36,0,0,1,0-.31,0.57,0.57,0,0,0-.15-0.72,0.53,0.53,0,0,0-.6.12,0.4,0.4,0,0,1-.36.17,0.35,0.35,0,0,1,0-.35,0.54,0.54,0,0,0-.08-0.59l3.19-1.84A0.17,0.17,0,0,0,69.38,56a0.17,0.17,0,0,0-.23-0.06l-3.71,2.14h-2l-0.53-.25a0.1,0.1,0,0,0-.14.09v0.17H60.7a0.17,0.17,0,0,0,0,.34h2.08v0.17a0.1,0.1,0,0,0,0,.09l0.05,0h0l0.55-.26h2.09l0.2-.12a0.22,0.22,0,0,1,.16,0,0.31,0.31,0,0,1,0,.28,0.57,0.57,0,0,0,.14.7,0.62,0.62,0,0,0,.73-0.21A0.25,0.25,0,0,1,67,59a0.39,0.39,0,0,1,0,.38,0.58,0.58,0,0,0,.17.65,0.54,0.54,0,0,0,.65-0.2,0.31,0.31,0,0,1,.29-0.11,0.39,0.39,0,0,1,0,.38,0.56,0.56,0,0,0,.18.62A0.54,0.54,0,0,0,69,60.53a0.27,0.27,0,0,1,.27-0.09,0.3,0.3,0,0,1,0,.31,0.76,0.76,0,0,0,0,.47,0.44,0.44,0,0,0-.45,0,0.63,0.63,0,0,0-.1.75,0.25,0.25,0,0,1,0,.25,0.39,0.39,0,0,1-.35-0.14,0.58,0.58,0,0,0-.66-0.1,0.54,0.54,0,0,0-.07.68,0.31,0.31,0,0,1,0,.31,0.39,0.39,0,0,1-.35-0.16,0.56,0.56,0,0,0-.64-0.08,0.54,0.54,0,0,0-.11.69,0.26,0.26,0,0,1,0,.28,0.29,0.29,0,0,1-.28-0.11,0.59,0.59,0,0,0-.64-0.15,0.5,0.5,0,0,0-.2.48H63.47l-0.55-.26a0.1,0.1,0,0,0-.1,0,0.1,0.1,0,0,0,0,.09v0.17H60.7a0.17,0.17,0,0,0,0,.34h2.09v0.17a0.1,0.1,0,0,0,0,.08l0.05,0h0l0.53-.25h2l3.7,2.14,0.08,0a0.17,0.17,0,0,0,.08-0.31L65.66,64a0.38,0.38,0,0,1,0-.29,0.34,0.34,0,0,1,.29.12,0.51,0.51,0,0,0,.65.13,0.55,0.55,0,0,0,.14-0.63,0.34,0.34,0,0,1,0-.34A0.27,0.27,0,0,1,67,63a0.57,0.57,0,0,0,.72.18,0.56,0.56,0,0,0,.12-0.66,0.38,0.38,0,0,1,0-.33,0.35,0.35,0,0,1,.3.1,0.57,0.57,0,0,0,.72.14,0.53,0.53,0,0,0,.13-0.6,0.4,0.4,0,0,1,0-.4,0.35,0.35,0,0,1,.33.13,0.53,0.53,0,0,0,.58.16,0.48,0.48,0,0,0,.24-0.41h0.19A0.17,0.17,0,0,0,70.31,61Zm-0.51.42a0.13,0.13,0,0,1,0,.05,0.17,0.17,0,0,1-.12,0Z"/><path class="cls-17" d="M71.41,61H70.86a0.17,0.17,0,1,0,0,.34h0.55A0.17,0.17,0,0,0,71.41,61Z"/><path class="cls-17" d="M73.61,61H73.06a0.17,0.17,0,0,0,0,.34h0.55A0.17,0.17,0,0,0,73.61,61Z"/><path class="cls-17" d="M72.51,61H72a0.17,0.17,0,0,0,0,.34h0.55A0.17,0.17,0,0,0,72.51,61Z"/><path class="cls-17" d="M75.15,61.09l-0.7-.33a0.1,0.1,0,0,0-.1,0,0.1,0.1,0,0,0,0,.08V61H74.16a0.17,0.17,0,0,0,0,.34H74.3v0.16a0.1,0.1,0,0,0,0,.09l0.05,0h0l0.71-.33a0.1,0.1,0,0,0,.06-0.09A0.1,0.1,0,0,0,75.15,61.09Z"/></svg>