<svg id="Layer_1" data-name="Layer 1" xmlns="http://www.w3.org/2000/svg" viewBox="0 0 273 62"><defs><style>.cls-1{fill:#ecf0f1;}.cls-2{fill:#3b97d3;}.cls-3{fill:#2c3e50;}.cls-4{fill:#bdc3c7;opacity:0.3;}.cls-5,.cls-6,.cls-7,.cls-8{fill:none;stroke:#2c3e50;stroke-width:1.65px;}.cls-5,.cls-6,.cls-8{stroke-miterlimit:10;}.cls-5,.cls-8{fill-rule:evenodd;}.cls-7,.cls-8{stroke-linecap:round;}.cls-7{stroke-linejoin:round;}</style></defs><title>cap</title><ellipse class="cls-1" cx="29.17" cy="47.68" rx="6.1" ry="0.98"/><path class="cls-2" d="M69.66,16.07l-2,2.32a4.55,4.55,0,0,0-3.34-1.73,3.71,3.71,0,0,0-3.7,3.86,3.74,3.74,0,0,0,3.7,3.91,5,5,0,0,0,3.34-1.56l2,2.09a8,8,0,0,1-5.49,2.43,6.79,6.79,0,1,1,.11-13.56A7.72,7.72,0,0,1,69.66,16.07Z"/><path class="cls-2" d="M74.6,16.61v2.64h6.34v2.66H74.6v2.68h7.24v2.66H71.22V13.95H81.63v2.66h-7Z"/><path class="cls-2" d="M90.07,23.5H87.41v3.74H84V13.95H90c3.51,0,5.53,1.67,5.53,4.63a4.43,4.43,0,0,1-2.41,4.27l2.79,4.39H92ZM90,20.84a2,2,0,0,0,2.32-2.15c0-1.39-.86-2.09-2.32-2.09H87.41v4.24H90Z"/><path class="cls-2" d="M107.07,27.24L101,19.06v8.19H97.78V13.95h3l6.14,8.21V13.95h3.15v13.3h-3Z"/><path class="cls-3" d="M61.09,43.59l-1,2.45H56.65l5.74-13.3h3.48L71.47,46H67.86l-0.95-2.45H61.09ZM64,36.11L62.08,41h3.84Z"/><path class="cls-3" d="M83.13,39.59V46H79.87V40.5a1.74,1.74,0,0,0-1.8-1.94A2.09,2.09,0,0,0,76,40.63V46H72.69V35.81H76v1.67a3.8,3.8,0,0,1,3.42-1.82A3.6,3.6,0,0,1,83.13,39.59Z"/><path class="cls-3" d="M94.53,39.36V46H91.32V44.87a3.75,3.75,0,0,1-3.13,1.33c-2.18,0-3.51-1.33-3.51-3.21s1.39-3.08,3.93-3.1h2.7V39.74c0-1-.66-1.62-2-1.62a7.2,7.2,0,0,0-3.06.85l-0.93-2.17a10.8,10.8,0,0,1,4.75-1.16C92.88,35.65,94.51,37,94.53,39.36ZM91.3,42.57V41.66H89.23c-1,0-1.48.34-1.48,1.1A1.24,1.24,0,0,0,89.19,44,2.07,2.07,0,0,0,91.3,42.57Z"/><path class="cls-3" d="M97,46V31.95h3.29V46H97Z"/><path class="cls-3" d="M108.38,47.11a4,4,0,0,1-4,2.77,4.65,4.65,0,0,1-3-1l1.37-2.24a2.07,2.07,0,0,0,1.35.55,1.31,1.31,0,0,0,1.27-.82l0.25-.51-4.26-10h3.38l2.51,6.8,2.22-6.8h3.27Z"/><path class="cls-3" d="M121.74,36.81l-1.12,2.13a7.36,7.36,0,0,0-3.23-1,0.82,0.82,0,0,0-1,.7c0,1.41,5.39.72,5.38,4.29,0,2.11-1.84,3.27-4.31,3.27a7.58,7.58,0,0,1-4.6-1.44l1-2.09a6.57,6.57,0,0,0,3.63,1.27c0.65,0,1.12-.23,1.12-0.7,0-1.5-5.3-.72-5.28-4.31,0-2.11,1.79-3.25,4.16-3.25A8.37,8.37,0,0,1,121.74,36.81Z"/><path class="cls-3" d="M127,32.86a1.73,1.73,0,1,1-1.73-1.73A1.67,1.67,0,0,1,127,32.86ZM123.6,46V35.81h3.27V46H123.6Z"/><path class="cls-3" d="M137.4,36.81l-1.12,2.13a7.36,7.36,0,0,0-3.23-1,0.82,0.82,0,0,0-1,.7c0,1.41,5.4.72,5.38,4.29,0,2.11-1.84,3.27-4.31,3.27a7.58,7.58,0,0,1-4.6-1.44l1-2.09a6.57,6.57,0,0,0,3.63,1.27c0.65,0,1.12-.23,1.12-0.7,0-1.5-5.3-.72-5.28-4.31,0-2.11,1.79-3.25,4.16-3.25A8.37,8.37,0,0,1,137.4,36.81Z"/><path class="cls-3" d="M149.48,32.75c3.4,0,5.36,1.67,5.36,4.63,0,3.12-2,4.92-5.36,4.92h-2.41V46h-3.38V32.75h5.79Zm-2.41,6.9h2.24a2,2,0,0,0,2.34-2.15c0-1.39-.85-2.09-2.34-2.09h-2.24v4.24Z"/><path class="cls-3" d="M159.87,37.53a3.74,3.74,0,0,1,3.32-1.88v3c-1.9-.17-3.15.72-3.32,2.17V46h-3.29V35.81h3.29v1.73Z"/><path class="cls-3" d="M174.35,41.81h-7.2a2.37,2.37,0,0,0,2.41,1.9,3.46,3.46,0,0,0,2.45-1l1.73,1.69a5.88,5.88,0,0,1-4.46,1.8c-3.34,0-5.43-2.09-5.43-5.2a5,5,0,0,1,5.34-5.26C172.79,35.69,174.58,38.07,174.35,41.81ZM171.2,40a1.91,1.91,0,0,0-2-2.07A2.2,2.2,0,0,0,167.09,40h4.1Z"/><path class="cls-3" d="M184,36.81l-1.12,2.13a7.36,7.36,0,0,0-3.23-1,0.82,0.82,0,0,0-1,.7c0,1.41,5.4.72,5.38,4.29,0,2.11-1.84,3.27-4.31,3.27a7.58,7.58,0,0,1-4.6-1.44l1-2.09a6.57,6.57,0,0,0,3.63,1.27c0.65,0,1.12-.23,1.12-0.7,0-1.5-5.3-.72-5.28-4.31,0-2.11,1.79-3.25,4.16-3.25A8.37,8.37,0,0,1,184,36.81Z"/><path class="cls-3" d="M195.53,41.81h-7.2a2.37,2.37,0,0,0,2.41,1.9,3.46,3.46,0,0,0,2.45-1l1.73,1.69a5.88,5.88,0,0,1-4.46,1.8c-3.34,0-5.43-2.09-5.43-5.2a5,5,0,0,1,5.34-5.26C194,35.69,195.76,38.07,195.53,41.81ZM192.38,40a1.91,1.91,0,0,0-2-2.07A2.2,2.2,0,0,0,188.28,40h4.1Z"/><path class="cls-3" d="M200.61,37.53a3.74,3.74,0,0,1,3.32-1.88v3c-1.9-.17-3.15.72-3.32,2.17V46h-3.29V35.81h3.29v1.73Z"/><path class="cls-3" d="M208.3,46l-3.86-10.24h3.38L210,43l2.22-7.24h3.27L211.67,46H208.3Z"/><path class="cls-3" d="M225.44,39.36V46h-3.21V44.87a3.75,3.75,0,0,1-3.13,1.33c-2.18,0-3.51-1.33-3.51-3.21s1.39-3.08,3.93-3.1h2.7V39.74c0-1-.67-1.62-2-1.62a7.2,7.2,0,0,0-3.06.85l-0.93-2.17A10.8,10.8,0,0,1,221,35.65C223.79,35.65,225.42,37,225.44,39.36Zm-3.23,3.21V41.66h-2.07c-1,0-1.48.34-1.48,1.1A1.24,1.24,0,0,0,220.1,44,2.07,2.07,0,0,0,222.21,42.57Z"/><path class="cls-3" d="M234.39,45.49a5.58,5.58,0,0,1-2.74.7,3.08,3.08,0,0,1-3.4-3.25V38.43h-1.42V36.28h1.42V33.43h3.27v2.83h2.68v2.16h-2.68v4a0.91,0.91,0,0,0,.95,1.12,3.55,3.55,0,0,0,1.27-.34Z"/><path class="cls-3" d="M239.43,32.86a1.73,1.73,0,1,1-1.73-1.73A1.67,1.67,0,0,1,239.43,32.86ZM236,46V35.81h3.27V46H236Z"/><path class="cls-3" d="M252.29,40.92c0,3.15-2.24,5.24-5.59,5.24s-5.6-2.09-5.6-5.24,2.24-5.22,5.6-5.22S252.29,37.76,252.29,40.92Zm-7.88,0A2.32,2.32,0,1,0,249,41,2.32,2.32,0,1,0,244.4,41Z"/><path class="cls-3" d="M264.5,39.59V46h-3.27V40.5a1.74,1.74,0,0,0-1.8-1.94,2.09,2.09,0,0,0-2.09,2.07V46h-3.29V35.81h3.29v1.67a3.8,3.8,0,0,1,3.42-1.82A3.6,3.6,0,0,1,264.5,39.59Z"/><path class="cls-3" d="M35.66,41.7c1.2-1.2-.72-5.7-5.5-10.48-0.4-.4-0.79-0.76-1.18-1.12,0.22-.12.43-0.23,0.66-0.33,0.34,0.32.68,0.63,1,1,4.17,4.17,7.36,9.59,5.5,11.46-1.71,1.71-6.4-.83-10.38-4.47h1C30.94,41.37,34.6,42.77,35.66,41.7Z"/><path class="cls-3" d="M25.61,37.9l-0.47-.43h1.76L27,37.53c4.11,3.62,7.62,4.89,8.52,4h0c0.51-.51.3-1.89-0.55-3.61A26.45,26.45,0,0,0,30,31.4c-0.39-.39-0.78-0.76-1.17-1.11l-0.26-.23,0.3-.17c0.22-.12.45-0.24,0.68-0.34l0.15-.07,0.12,0.11c0.34,0.32.69,0.64,1,1,4.19,4.19,7.55,9.76,5.5,11.81a2.27,2.27,0,0,1-1.67.61C32.26,43,28.58,40.62,25.61,37.9Zm3.81-7.75c0.31,0.28.62,0.58,0.93,0.89a26.93,26.93,0,0,1,5,6.65c1,2,1.15,3.49.46,4.19h0c-1.27,1.27-5.1-.37-9.13-3.91H26.43c3.67,3.23,8,5.59,9.55,4,1.73-1.73-1.5-7.11-5.5-11.1-0.29-.29-0.58-0.57-0.88-0.84Z"/><path class="cls-3" d="M39,33.13c-1.66-1.39-6.19-2.33-11.28-2.33-5.89,0-12,1.34-12,3.58a1.67,1.67,0,0,0,.71,1.26C18.08,37,22.61,38,27.7,38c5.89,0,12-1.34,12-3.58A1.68,1.68,0,0,0,39,33.13ZM27.7,37.39c-4.84,0-9.28-.89-10.79-2.16a1.17,1.17,0,0,1-.5-0.85c0-1.45,4.54-3,11.3-3,4.84,0,9.28.89,10.79,2.16a1.16,1.16,0,0,1,.51.85C39,35.84,34.46,37.39,27.7,37.39Z"/><path class="cls-3" d="M27.7,38.22c-5.14,0-9.74-1-11.44-2.39a1.91,1.91,0,0,1-.8-1.45c0-2.49,6.31-3.83,12.24-3.83,5.14,0,9.74,1,11.44,2.39h0a1.91,1.91,0,0,1,.8,1.45C39.94,36.88,33.63,38.22,27.7,38.22Zm0-7.17c-6.47,0-11.74,1.5-11.74,3.33a1.44,1.44,0,0,0,.62,1.07c1.62,1.36,6.08,2.27,11.12,2.27,6.47,0,11.74-1.5,11.74-3.33a1.44,1.44,0,0,0-.62-1.07h0C37.2,32,32.74,31.05,27.7,31.05Zm0,6.59c-4.89,0-9.4-.91-11-2.21a1.4,1.4,0,0,1-.59-1c0-1.82,5.07-3.25,11.55-3.25,4.9,0,9.4.91,11,2.21a1.4,1.4,0,0,1,.59,1C39.25,36.21,34.17,37.64,27.7,37.64Zm0-6c-6.84,0-11,1.6-11,2.75a0.94,0.94,0,0,0,.42.66c1.47,1.24,5.84,2.1,10.63,2.1,6.84,0,11-1.6,11-2.75a0.94,0.94,0,0,0-.42-0.66C36.86,32.5,32.49,31.63,27.7,31.63Z"/><path class="cls-3" d="M21.45,24.76c2.23,0.4,5.4,2.43,8.2,5-0.22.1-.44,0.21-0.66,0.33-4.2-3.83-8-5.38-9.19-4.46a2.28,2.28,0,0,0-.4-0.55A2.6,2.6,0,0,1,21.45,24.76Z"/><path class="cls-3" d="M28.82,30.28C24.64,26.47,21,25,19.95,25.84L19.71,26l-0.14-.26a2,2,0,0,0-.35-0.49l-0.2-.2,0.23-.17a2.82,2.82,0,0,1,2.24-.38h0c2.18,0.39,5.29,2.28,8.32,5.07l0.28,0.26L29.75,30c-0.22.1-.43,0.21-0.64,0.32L29,30.41ZM21.41,25h0a2.6,2.6,0,0,0-1.63.14l0.11,0.15c1.61-.76,5.34,1.06,9.14,4.49l0.18-.09C26.37,27.15,23.4,25.36,21.41,25Z"/><path class="cls-2" d="M23.68,35.09h0a1.22,1.22,0,0,1-1.22-1.22V30.72a1.22,1.22,0,0,1,1.22-1.22h0a1.22,1.22,0,0,1,1.22,1.22v3.15A1.22,1.22,0,0,1,23.68,35.09Z"/><path class="cls-2" d="M27.62,35.09h0a1.22,1.22,0,0,1-1.22-1.22v-7a1.22,1.22,0,0,1,1.22-1.22h0a1.22,1.22,0,0,1,1.22,1.22v7A1.22,1.22,0,0,1,27.62,35.09Z"/><path class="cls-2" d="M31.56,35.09h0a1.22,1.22,0,0,1-1.22-1.22V23.53a1.22,1.22,0,0,1,1.22-1.22h0a1.22,1.22,0,0,1,1.22,1.22V33.87A1.22,1.22,0,0,1,31.56,35.09Z"/><path class="cls-4" d="M44.4,23.25a46.57,46.57,0,0,0-3.65-6.65l-1,.75-0.19-.26L39,17.48l-0.66-1-1.64,1.14A47,47,0,0,1,40.46,24c2.51,6.16,3.59,20.94.09,26.19-0.67,1-.38,1.59,0,1.9a1.09,1.09,0,0,0,.71.25h0l0,0,0.09-.06a1.78,1.78,0,0,0,.5-0.13h0l0.14-.08a1.34,1.34,0,0,0,.27-0.19V51.84l0.28-.06a2.06,2.06,0,0,0,1.53-.87C47.79,45,47,29.31,44.4,23.25Z"/><path class="cls-5" d="M15.07,15.76a52.1,52.1,0,0,0-4.43,7c-2.55,6.16-3.15,20.8,0,26.67,3.51,6.55,30.4,6,34,0,3.43-5.72,2.55-20.51,0-26.67a47.19,47.19,0,0,0-3.89-6.42"/><ellipse class="cls-6" cx="28.18" cy="11.37" rx="13.22" ry="3.52"/><line class="cls-7" x1="14.96" y1="11.3" x2="14.96" y2="15.65"/><path class="cls-8" d="M40.76,16.36c-1.9,1.2-6.7,2.58-12.58,2.58C20.88,18.94,15,17.27,15,15.2"/><path class="cls-3" d="M19.4,25.09a2.28,2.28,0,0,1,.4.55l-0.11.08c-1.2,1.2.72,5.7,5.5,10.48,0.54,0.54,1.08,1,1.62,1.52h-1c-0.37-.33-0.73-0.67-1.08-1-4.17-4.17-7.36-9.59-5.5-11.46A1.67,1.67,0,0,1,19.4,25.09Z"/><path class="cls-3" d="M25.61,37.9c-0.37-.34-0.73-0.68-1.09-1C20.32,32.68,17,27.11,19,25.06a0.94,0.94,0,0,1,.17-0.13l0.23-.17,0.15,0.15a2.5,2.5,0,0,1,.44.61l0.1,0.19-0.25.19c-0.51.51-.3,1.89,0.55,3.61A26.45,26.45,0,0,0,25.36,36c0.51,0.51,1.05,1,1.6,1.5L27.46,38H25.68ZM25,36.38a27,27,0,0,1-5-6.65c-1-2-1.15-3.44-.49-4.15l-0.11-.16c-1.7,1.75,1.53,7.11,5.51,11.09,0.33,0.33.66,0.64,1,1h0.27C25.76,37.11,25.38,36.75,25,36.38Z"/></svg>